<svg width="46" height="45" viewBox="0 0 46 45" fill="none" xmlns="http://www.w3.org/2000/svg">
<circle cx="23" cy="22.5" r="22.5" fill="#262626"/>
<path d="M32.5285 32.2349C33.3222 32.9121 34.5154 32.8732 35.1593 32.0522C36.6409 30.1628 37.6643 27.9449 38.1361 25.5732C38.7285 22.595 38.4244 19.508 37.2624 16.7026C36.1004 13.8972 34.1325 11.4993 31.6077 9.81232C29.0829 8.1253 26.1145 7.22485 23.078 7.22485C20.0414 7.22485 17.073 8.1253 14.5482 9.81232C12.0234 11.4993 10.0556 13.8972 8.89354 16.7026C7.7315 19.508 7.42746 22.595 8.01986 25.5732C8.48166 27.8948 9.47204 30.0691 10.9034 31.932C11.5764 32.8079 12.8548 32.8011 13.6359 32.0201L16.596 29.0599C17.3771 28.2789 17.346 27.0197 16.8103 26.0537C16.4524 25.4082 16.1944 24.7079 16.0488 23.9762C15.7723 22.5859 15.9142 21.1449 16.4567 19.8353C16.9991 18.5258 17.9177 17.4065 19.0963 16.619C20.2749 15.8314 21.6605 15.4111 23.078 15.4111C24.4954 15.4111 25.8811 15.8314 27.0597 16.619C28.2382 17.4065 29.1568 18.5258 29.6993 19.8353C30.2417 21.1449 30.3837 22.5859 30.1071 23.9762C29.9225 24.9041 27.4755 24.3842 25.5705 24.2339C24.4073 24.1421 24.233 25.1569 25.1206 25.9142L32.5285 32.2349Z" fill="white"/>
</svg>
