<svg width="13" height="31" viewBox="0 0 13 31" fill="none" xmlns="http://www.w3.org/2000/svg">
<path d="M7.28143 15.5C6.73065 15.9502 6.28683 16.5159 5.98175 17.1566C5.20195 18.755 5.20195 20.7086 5.20195 22.6042C5.20195 26.5292 5.03949 28.4167 1.30292 28.4167C0.958229 28.4167 0.627651 28.5528 0.383915 28.795C0.140179 29.0372 0.00324917 29.3658 0.00324917 29.7083C0.00324917 30.0509 0.140179 30.3794 0.383915 30.6217C0.627651 30.8639 0.958229 31 1.30292 31C4.14271 31 6.06623 30.0086 7.02149 28.0518C7.8013 26.4533 7.8013 24.4997 7.8013 22.6042C7.8013 18.6791 7.96376 16.7917 11.7003 16.7917C12.045 16.7917 12.3756 16.6556 12.6193 16.4133C12.8631 16.1711 13 15.8426 13 15.5C13 15.1574 12.8631 14.8289 12.6193 14.5867C12.3756 14.3444 12.045 14.2083 11.7003 14.2083C7.96376 14.2083 7.8013 12.3209 7.8013 8.39583C7.8013 6.50354 7.8013 4.54667 7.02149 2.94823C6.06298 0.991354 4.13947 0 1.29967 0C0.95498 0 0.624403 0.136086 0.380667 0.378321C0.13693 0.620555 0 0.949095 0 1.29167C0 1.63424 0.13693 1.96278 0.380667 2.20501C0.624403 2.44725 0.95498 2.58333 1.29967 2.58333C5.03624 2.58333 5.1987 4.47078 5.1987 8.39583C5.1987 10.2881 5.1987 12.245 5.97851 13.8434C6.28452 14.4844 6.72947 15.0501 7.28143 15.5Z" fill="#B287FD"/>
</svg>
