<svg width="13" height="31" viewBox="0 0 13 31" fill="none" xmlns="http://www.w3.org/2000/svg">
<path d="M5.71857 15.5C6.26935 15.9502 6.71317 16.5159 7.01825 17.1566C7.79805 18.755 7.79805 20.7086 7.79805 22.6042C7.79805 26.5292 7.96051 28.4167 11.6971 28.4167C12.0418 28.4167 12.3723 28.5528 12.6161 28.795C12.8598 29.0372 12.9968 29.3658 12.9968 29.7083C12.9968 30.0509 12.8598 30.3794 12.6161 30.6217C12.3723 30.8639 12.0418 31 11.6971 31C8.85729 31 6.93377 30.0086 5.97851 28.0518C5.1987 26.4533 5.1987 24.4997 5.1987 22.6042C5.1987 18.6791 5.03624 16.7917 1.29967 16.7917C0.95498 16.7917 0.624402 16.6556 0.380666 16.4133C0.13693 16.1711 0 15.8426 0 15.5C0 15.1574 0.13693 14.8289 0.380666 14.5867C0.624402 14.3444 0.95498 14.2083 1.29967 14.2083C5.03624 14.2083 5.1987 12.3209 5.1987 8.39583C5.1987 6.50354 5.1987 4.54667 5.97851 2.94823C6.93702 0.991354 8.86054 0 11.7003 0C12.045 0 12.3756 0.136086 12.6193 0.378321C12.8631 0.620555 13 0.949095 13 1.29167C13 1.63424 12.8631 1.96278 12.6193 2.20501C12.3756 2.44725 12.045 2.58333 11.7003 2.58333C7.96376 2.58333 7.8013 4.47078 7.8013 8.39583C7.8013 10.2881 7.8013 12.245 7.02149 13.8434C6.71548 14.4844 6.27053 15.0501 5.71857 15.5Z" fill="#B287FD"/>
</svg>
