<svg width="16" height="16" viewBox="0 0 16 16" fill="none" xmlns="http://www.w3.org/2000/svg">
<circle cx="8" cy="8" r="8" fill="#262626"/>
<path d="M10.482 10.6883C11.2757 11.3655 12.4996 11.3277 12.9505 10.3868C13.1468 9.97734 13.2922 9.54281 13.3817 9.0927C13.5924 8.03378 13.4842 6.93618 13.0711 5.9387C12.6579 4.94122 11.9582 4.08866 11.0605 3.48883C10.1628 2.889 9.10739 2.56884 8.02772 2.56884C6.94806 2.56884 5.89264 2.889 4.99493 3.48883C4.09722 4.08866 3.39754 4.94122 2.98437 5.9387C2.5712 6.93618 2.46309 8.03378 2.67373 9.0927C2.78906 9.67253 2.99713 10.2265 3.28713 10.7344C3.68566 11.4324 4.62844 11.427 5.19679 10.8587V10.8587C5.76513 10.2903 5.70868 9.35495 5.53778 8.56956C5.53455 8.5547 5.53144 8.5398 5.52847 8.52486C5.43015 8.03055 5.48061 7.51819 5.67348 7.05257C5.86635 6.58694 6.19296 6.18896 6.61201 5.90896C7.03106 5.62896 7.52373 5.47951 8.02772 5.47951C8.53171 5.47951 9.02438 5.62896 9.44344 5.90896C9.86249 6.18896 10.1891 6.58694 10.382 7.05257C10.5748 7.51819 10.6253 8.03055 10.527 8.52486C10.5085 8.61758 10.4266 8.66965 10.3032 8.6954C9.16099 8.93381 8.92757 9.36205 9.8152 10.1194L10.482 10.6883Z" fill="white"/>
</svg>
